<svg width="21" height="41" viewBox="0 0 21 41" fill="none" xmlns="http://www.w3.org/2000/svg">
    <path d="M13.3312 1.19012L13.3174 9.73144L13.3033 18.2728L12.6499 16.29L12.6487 16.2862L11.8044 35.3015C12.6346 37.8229 13.0793 39.1688 13.0843 39.1742C13.0907 39.1813 13.5639 39.212 14.1356 39.2425C15.8676 39.3349 18.0141 39.5329 19.6424 39.7506C20.0194 39.8009 20.3438 39.8268 20.3635 39.8078C20.3829 39.7891 20.3935 31.0924 20.3871 20.482L20.3751 1.19012H13.3312Z" fill="#B1060F" stroke="black" stroke-width="0.611984"/>
    <path d="M0.591187 1.16455V20.476C0.591187 31.0973 0.600916 39.7978 0.612717 39.8105C0.624518 39.8232 1.23609 39.7611 1.97188 39.6725C2.70746 39.5839 3.7244 39.4737 4.23142 39.4276C5.00903 39.357 7.33067 39.1965 7.5994 39.1947C7.67766 39.1942 7.68263 38.7605 7.69402 31.0154L7.70602 22.8363L8.2677 24.5457L8.46645 25.1497L9.31051 6.13914L9.02046 5.25742C8.58723 3.9396 8.15364 2.62192 7.71969 1.30438L7.67311 1.16455H0.591187Z" fill="#B1060F" stroke="black" stroke-width="0.611984"/>
    <path d="M0.591187 1.16455V12.0046L7.69153 32.2609C7.69236 31.7967 7.69319 31.546 7.69401 31.0154L7.70602 22.8363L8.2677 24.5457C11.3947 34.0616 13.0745 39.1635 13.0845 39.1742C13.0909 39.1813 13.5642 39.212 14.1358 39.2425C15.8678 39.3349 18.0143 39.5329 19.6426 39.7506C20.0196 39.801 20.344 39.8268 20.3637 39.8079C20.377 39.795 20.3859 35.5306 20.3881 29.5151L13.3209 7.66366L13.3176 9.73147L13.3035 18.2728L12.6501 16.29C12.0117 14.3527 11.5854 13.0571 9.02046 5.25742C8.58723 3.9396 8.15364 2.62192 7.71969 1.30438L7.6731 1.16455H0.591187Z" fill="url(#paint0_radial)"/>
    <path d="M0.591187 1.16455L7.70582 22.8461V22.8363L8.26749 24.5457C11.3945 34.0616 13.0743 39.1635 13.0843 39.1742C13.0907 39.1813 13.564 39.2121 14.1356 39.2426C15.8676 39.335 18.0141 39.5329 19.6424 39.7507C20.0176 39.8008 20.3401 39.8264 20.3629 39.8081L13.3031 18.269V18.2728L12.6497 16.29C12.0112 14.3527 11.585 13.0571 9.02005 5.25742C8.33022 3.16 7.74495 1.38142 7.71927 1.30438L7.67269 1.16455H0.591187Z" fill="#E50914"/>
    <path d="M13.3312 1.19012L13.3174 9.73144L13.3033 18.2728L12.6499 16.29L12.6487 16.2862L11.8044 35.3015C12.6346 37.8229 13.0793 39.1688 13.0843 39.1742C13.0907 39.1813 13.5639 39.212 14.1356 39.2425C15.8676 39.3349 18.0141 39.5329 19.6424 39.7506C20.0194 39.8009 20.3438 39.8268 20.3635 39.8078C20.3829 39.7891 20.3935 31.0924 20.3871 20.482L20.3751 1.19012H13.3312Z" fill="#B1060F" stroke="black" stroke-width="0.611984"/>
    <path d="M0.591187 1.16455V20.476C0.591187 31.0973 0.600916 39.7978 0.612717 39.8105C0.624518 39.8232 1.23609 39.7611 1.97188 39.6725C2.70746 39.5839 3.7244 39.4737 4.23142 39.4276C5.00903 39.357 7.33067 39.1965 7.5994 39.1947C7.67766 39.1942 7.68263 38.7605 7.69402 31.0154L7.70602 22.8363L8.2677 24.5457L8.46645 25.1497L9.31051 6.13914L9.02046 5.25742C8.58723 3.9396 8.15364 2.62192 7.71969 1.30438L7.67311 1.16455H0.591187Z" fill="#B1060F" stroke="black" stroke-width="0.611984"/>
    <path d="M0.591187 1.16455V12.0046L7.69153 32.2609C7.69236 31.7967 7.69319 31.546 7.69401 31.0154L7.70602 22.8363L8.2677 24.5457C11.3947 34.0616 13.0745 39.1635 13.0845 39.1742C13.0909 39.1813 13.5642 39.212 14.1358 39.2425C15.8678 39.3349 18.0143 39.5329 19.6426 39.7506C20.0196 39.801 20.344 39.8268 20.3637 39.8079C20.377 39.795 20.3859 35.5306 20.3881 29.5151L13.3209 7.66366L13.3176 9.73147L13.3035 18.2728L12.6501 16.29C12.0117 14.3527 11.5854 13.0571 9.02046 5.25742C8.58723 3.9396 8.15364 2.62192 7.71969 1.30438L7.6731 1.16455H0.591187Z" fill="url(#paint1_radial)"/>
    <path d="M0.591187 1.16455L7.70582 22.8461V22.8363L8.26749 24.5457C11.3945 34.0616 13.0743 39.1635 13.0843 39.1742C13.0907 39.1813 13.564 39.2121 14.1356 39.2426C15.8676 39.335 18.0141 39.5329 19.6424 39.7507C20.0176 39.8008 20.3401 39.8264 20.3629 39.8081L13.3031 18.269V18.2728L12.6497 16.29C12.0112 14.3527 11.585 13.0571 9.02005 5.25742C8.33022 3.16 7.74495 1.38142 7.71927 1.30438L7.67269 1.16455H0.591187Z" fill="#E50914"/>
    <defs>
    <radialGradient id="paint0_radial" cx="0" cy="0" r="1" gradientUnits="userSpaceOnUse" gradientTransform="translate(10.161 7.61993) scale(13.9446 14.9971)">
    <stop/>
    <stop offset="1" stop-opacity="0"/>
    </radialGradient>
    <radialGradient id="paint1_radial" cx="0" cy="0" r="1" gradientUnits="userSpaceOnUse" gradientTransform="translate(10.161 7.61993) scale(13.9446 14.9971)">
    <stop/>
    <stop offset="1" stop-opacity="0"/>
    </radialGradient>
    </defs>
    </svg>
